<svg xmlns="http://www.w3.org/2000/svg" xmlns:xlink="http://www.w3.org/1999/xlink" viewBox="0 0 6988.62 5679.36"><defs><style>.cls-1{isolation:isolate;}.cls-2{fill:#fcfcfc;}.cls-3{fill-rule:evenodd;mix-blend-mode:color-burn;fill:url(#radial-gradient);}.cls-4{fill:url(#linear-gradient);}.cls-5{fill:url(#linear-gradient-2);}.cls-6{mix-blend-mode:screen;fill:url(#linear-gradient-3);}.cls-7{fill:url(#linear-gradient-4);}.cls-8{fill:url(#linear-gradient-5);}.cls-9{fill:url(#linear-gradient-6);}.cls-10{font-size:595.8px;}.cls-10,.cls-12{font-family:Montserrat-ExtraBold, Montserrat;font-weight:800;}.cls-11{letter-spacing:-0.02em;}.cls-12{font-size:508.91px;}.cls-13{letter-spacing:-0.01em;}</style><radialGradient id="radial-gradient" cx="3396.02" cy="28124.01" fx="3892.2763583343817" r="1720.82" gradientTransform="translate(-3292.35 1637.1) scale(1.97 0.08)" gradientUnits="userSpaceOnUse"><stop offset="0.52" stop-color="#333"/><stop offset="0.64" stop-color="#8f8f8f"/><stop offset="0.64" stop-color="#919191"/><stop offset="0.76" stop-color="silver"/><stop offset="0.86" stop-color="#e2e2e2"/><stop offset="0.94" stop-color="#f7f7f7"/><stop offset="1" stop-color="#fff"/></radialGradient><linearGradient id="linear-gradient" x1="1612.35" y1="4202.19" x2="4582.6" y2="2115.25" gradientUnits="userSpaceOnUse"><stop offset="0" stop-color="#484848"/><stop offset="0.06" stop-color="#444"/><stop offset="0.12" stop-color="#393939"/><stop offset="0.17" stop-color="#262626"/><stop offset="0.23" stop-color="#0c0c0c"/><stop offset="0.23" stop-color="#0b0b0b"/><stop offset="0.32" stop-color="#141414"/><stop offset="1" stop-color="#575757"/></linearGradient><linearGradient id="linear-gradient-2" x1="2139.17" y1="3700.8" x2="6307.67" y2="955.03" gradientUnits="userSpaceOnUse"><stop offset="0.03" stop-color="#e8e8e9"/><stop offset="0.89" stop-color="#fff"/></linearGradient><linearGradient id="linear-gradient-3" x1="6083.78" y1="2726.38" x2="2187.12" y2="2826.07" gradientUnits="userSpaceOnUse"><stop offset="0"/><stop offset="0.29" stop-color="#020202"/><stop offset="0.43" stop-color="#0a0a0a"/><stop offset="0.53" stop-color="#171717"/><stop offset="0.62" stop-color="#292929"/><stop offset="0.7" stop-color="#414141"/><stop offset="0.77" stop-color="#5e5e5e"/><stop offset="0.84" stop-color="#818181"/><stop offset="0.9" stop-color="#aaa"/><stop offset="0.96" stop-color="#d7d7d7"/><stop offset="1" stop-color="#fff"/></linearGradient><linearGradient id="linear-gradient-4" x1="1513.83" y1="3843.34" x2="5720.66" y2="3843.34" gradientUnits="userSpaceOnUse"><stop offset="0" stop-color="#2c2c2c"/><stop offset="0.01" stop-color="#4b4b4b"/><stop offset="0.02" stop-color="#636363"/><stop offset="0.02" stop-color="#6c6c6c"/><stop offset="0.03" stop-color="#767676"/><stop offset="0.04" stop-color="#919191"/><stop offset="0.04" stop-color="#a4a4a4"/><stop offset="0.05" stop-color="#afafaf"/><stop offset="0.06" stop-color="#b3b3b3"/><stop offset="0.07" stop-color="#b2b2b2"/><stop offset="0.13" stop-color="#a5a5a5"/><stop offset="0.84" stop-color="#a5a5a5"/><stop offset="0.84" stop-color="#a6a6a6"/><stop offset="0.93" stop-color="#b4b4b4"/><stop offset="0.94" stop-color="#aeaeae"/><stop offset="0.95" stop-color="#9e9e9e"/><stop offset="0.97" stop-color="#838383"/><stop offset="0.98" stop-color="#6c6c6c"/><stop offset="1" stop-color="#2c2c2c"/></linearGradient><linearGradient id="linear-gradient-5" x1="1513.83" y1="3801" x2="5720.66" y2="3801" gradientUnits="userSpaceOnUse"><stop offset="0" stop-color="#49494a"/><stop offset="0" stop-color="#565657"/><stop offset="0.01" stop-color="#7d7d7e"/><stop offset="0.02" stop-color="#969696"/><stop offset="0.02" stop-color="#9f9f9f"/><stop offset="0.03" stop-color="#c1c1c1"/><stop offset="0.04" stop-color="#dcdcdc"/><stop offset="0.05" stop-color="#efefef"/><stop offset="0.05" stop-color="#fafafa"/><stop offset="0.06" stop-color="#fefefe"/><stop offset="0.08" stop-color="#f8f8f8"/><stop offset="0.13" stop-color="#ebebeb"/><stop offset="0.84" stop-color="#ebebeb"/><stop offset="0.86" stop-color="#f1f1f1"/><stop offset="0.93" stop-color="#fff"/><stop offset="0.94" stop-color="#f9f9f9"/><stop offset="0.95" stop-color="#e9e9e9"/><stop offset="0.96" stop-color="#cecece"/><stop offset="0.97" stop-color="#a8a8a8"/><stop offset="0.98" stop-color="#9f9f9f"/><stop offset="1" stop-color="#49494a"/></linearGradient><linearGradient id="linear-gradient-6" x1="3139.39" y1="3771.16" x2="5463.25" y2="3771.16" gradientUnits="userSpaceOnUse"><stop offset="0" stop-color="#2c2c2c"/><stop offset="0.06" stop-color="#4b4b4b"/><stop offset="0.12" stop-color="#636363"/><stop offset="0.15" stop-color="#6c6c6c"/><stop offset="0.16" stop-color="#747474"/><stop offset="0.19" stop-color="#8f8f8f"/><stop offset="0.21" stop-color="#a2a2a2"/><stop offset="0.24" stop-color="#adadad"/><stop offset="0.27" stop-color="#b1b1b1"/><stop offset="0.37" stop-color="#a5a5a5"/><stop offset="0.69" stop-color="#a5a5a5"/><stop offset="0.69" stop-color="#a6a6a6"/><stop offset="0.78" stop-color="#b4b4b4"/><stop offset="0.8" stop-color="#aeaeae"/><stop offset="0.82" stop-color="#9e9e9e"/><stop offset="0.85" stop-color="#838383"/><stop offset="0.88" stop-color="#6c6c6c"/><stop offset="1" stop-color="#2c2c2c"/></linearGradient></defs><title>Logo2</title><g class="cls-1"><g id="Layer_1" data-name="Layer 1"><rect class="cls-2" x="2570.44" y="1684.52" width="2175.74" height="2175.74"/><path class="cls-3" d="M6763.69,3858.9c0,75-1514.09,135.94-3381.84,135.94S0,3933.93,0,3858.9s1514.1-136,3381.85-136S6763.69,3783.78,6763.69,3858.9Z"/><path class="cls-4" d="M5345.05,3811.11V1811.28a68,68,0,0,0-67.9-68H1957.38a68,68,0,0,0-67.94,68V3811.11Z"/><rect class="cls-5" x="1994.59" y="1850.49" width="3242.5" height="1755.27"/><path class="cls-6" d="M5345.05,3811.11V1811.28a68,68,0,0,0-67.9-68H2850.49L4079.18,3811.11Z"/><path class="cls-7" d="M1513.83,3771.59v65c0,17.52,227.62,78.51,258.89,78.51h3689c31.3,0,258.92-61,258.92-78.51v-65Z"/><path class="cls-8" d="M5720.66,3824.85c0,17.61-28.06,31.89-62.68,31.89H1576.55c-34.66,0-62.72-14.28-62.72-31.89v-47.78c0-17.6,28.06-31.81,62.72-31.81H5658c34.62,0,62.68,14.21,62.68,31.81Z"/><path class="cls-9" d="M4038,3757.07H3196.53a25.59,25.59,0,0,1-20.61-10.27v23.63a25,25,0,0,0,25,25.09h832.59a25,25,0,0,0,25-25.09V3746.8A25.69,25.69,0,0,1,4038,3757.07Z"/><text class="cls-10" transform="translate(2359.55 2521.05)"><tspan class="cls-11">W</tspan><tspan x="691.14" y="0">ORDS</tspan></text><text class="cls-12" transform="translate(2871.05 2907.53)"><tspan class="cls-13">W</tspan><tspan x="594.91" y="0">ITH</tspan></text><text class="cls-10" transform="translate(2083.12 3350.4)">MEANING</text></g></g></svg>